<?xml version="1.0" encoding="UTF-8"?>
<svg id="Outputs" xmlns="http://www.w3.org/2000/svg" viewBox="0 0 1145 531">
  <defs>
    <style>
      .cls-1 {
        fill: #739ed3;
      }

      .cls-2 {
        fill: #2872ba;
      }

      .cls-3 {
        fill: #fff;
        stroke: #fff;
        stroke-miterlimit: 10;
      }

      .cls-4 {
        fill: #10182a;
      }
    </style>
  </defs>
  <g id="ngvault-landscape">
    <g>
      <path class="cls-4" d="M434.92,242.41l.83,11.46c7.09-8.86,16.6-13.3,28.52-13.3,10.51,0,18.34,3.09,23.48,9.26,5.14,6.18,7.76,15.41,7.89,27.7v64.1h-26.5v-63.46c0-5.62-1.22-9.71-3.67-12.24-2.45-2.54-6.51-3.81-12.2-3.81-7.46,0-13.05,3.18-16.78,9.54v69.97h-26.5v-99.23h24.94Z"/>
      <path class="cls-4" d="M516.56,291.29c0-15.22,3.62-27.48,10.87-36.78,7.25-9.29,17.01-13.94,29.3-13.94,10.88,0,19.35,3.73,25.4,11.19l1.1-9.35h24.03v95.93c0,8.68-1.97,16.23-5.92,22.65-3.94,6.42-9.49,11.31-16.65,14.67-7.15,3.36-15.53,5.04-25.13,5.04-7.28,0-14.37-1.45-21.28-4.36-6.91-2.9-12.14-6.65-15.68-11.23l11.74-16.14c6.6,7.4,14.61,11.1,24.03,11.1,7.03,0,12.5-1.88,16.42-5.64,3.91-3.76,5.87-9.1,5.87-16v-5.32c-6.11,6.91-14.15,10.36-24.12,10.36-11.92,0-21.57-4.66-28.93-13.99-7.37-9.32-11.05-21.69-11.05-37.1v-1.1ZM543.06,293.26c0,9,1.8,16.06,5.41,21.17,3.61,5.11,8.56,7.67,14.86,7.67,8.07,0,13.85-3.03,17.33-9.09v-41.79c-3.55-6.06-9.26-9.09-17.15-9.09-6.36,0-11.36,2.6-14.99,7.81-3.64,5.2-5.46,12.98-5.46,23.33Z"/>
      <path class="cls-4" d="M683.4,308.53l30.26-100.42h30.63l-46.5,133.53h-28.7l-46.31-133.53h30.54l30.08,100.42Z"/>
      <path class="cls-4" d="M813.09,341.64c-1.22-2.38-2.11-5.35-2.66-8.9-6.42,7.15-14.77,10.73-25.04,10.73-9.72,0-17.78-2.81-24.17-8.44-6.39-5.62-9.58-12.72-9.58-21.28,0-10.51,3.9-18.59,11.69-24.21,7.8-5.62,19.06-8.47,33.79-8.53h12.2v-5.69c0-4.59-1.18-8.25-3.53-11.01-2.35-2.75-6.07-4.13-11.14-4.13-4.46,0-7.96,1.07-10.5,3.21-2.54,2.14-3.81,5.08-3.81,8.8h-26.5c0-5.75,1.77-11.06,5.32-15.96,3.54-4.89,8.56-8.73,15.04-11.51,6.48-2.78,13.76-4.17,21.83-4.17,12.23,0,21.93,3.07,29.12,9.22,7.18,6.14,10.78,14.78,10.78,25.91v43.01c.06,9.42,1.38,16.54,3.94,21.37v1.56h-26.78ZM791.17,323.2c3.91,0,7.52-.87,10.82-2.61s5.75-4.08,7.34-7.02v-17.06h-9.9c-13.27,0-20.33,4.59-21.18,13.76l-.09,1.56c0,3.3,1.16,6.02,3.48,8.16,2.32,2.14,5.5,3.21,9.54,3.21Z"/>
      <path class="cls-4" d="M920.41,331.55c-6.54,7.95-15.59,11.92-27.15,11.92-10.64,0-18.75-3.06-24.35-9.17-5.59-6.11-8.45-15.07-8.57-26.87v-65.02h26.5v64.18c0,10.34,4.71,15.52,14.12,15.52s15.16-3.12,18.53-9.37v-70.33h26.6v99.23h-24.94l-.73-10.09Z"/>
      <path class="cls-4" d="M998.75,341.64h-26.6v-140.86h26.6v140.86Z"/>
      <path class="cls-4" d="M1057,218.01v24.39h16.97v19.44h-16.97v49.52c0,3.67.7,6.3,2.11,7.89,1.41,1.59,4.1,2.38,8.07,2.38,2.93,0,5.53-.21,7.8-.64v20.08c-5.2,1.59-10.55,2.38-16.05,2.38-18.59,0-28.06-9.38-28.43-28.15v-53.47h-14.49v-19.44h14.49v-24.39h26.5Z"/>
    </g>
    <g>
      <path class="cls-3" d="M314.59,297.55c-10.7-10.6-14.17-53.24-35.15-43.14-2.78,1.34-4.4,5.51-5.33,8.37-9.71,29.83-14.4,76.16-20.71,108.55-.5,2.56-.23,9.48-3.24,9.46l-17.26-189.31h-39.31c-7.93,40.51-14.32,82.61-23.08,122.22-.87,3.95.03,16.05-4.17,8.28-.14-.26-.29-.54-.44-.84-3.45-6.89-10.86-30.26-17.31-42.96-2.14-4.21-4.17-7.24-5.92-8.09-19.04-9.27-21.43,20.74-31.4,27.31-4.82,3.18-15.27,2.54-24.48,2.85v21.52c11.53,1.61,26.14,1.12,31.35.14,9.3-1.75,13.53-23.34,18.6-19.54,0,.01.01.03.02.04,0,0,0,0,.01,0,7.78,15.62,15.48,46.61,25.68,59.46,8.23,10.34,17.41,5.75,21.12-5.72,11.09-34.21,16.33-82.09,24.45-118.56.79-3.55,1.77-11.93,4.94-13.63,0,.03,0,.05,0,.08,0,0,0,0,0,0,5.25,51.87,10.7,103.85,15.64,155.77.1,1.03.19,2.08.28,3.13.03.32.06.64.08.96.09,1.07.17,2.15.25,3.23.03.37.06.73.08,1.1.08,1.14.16,2.29.24,3.44.02.23.03.46.05.69.43,6.58.76,13.3,1.1,20.06h36.46l22.07-115.88h0s.01-.05.01-.05l6.19,12.38c3.24,3.46,5.32,8.66,9.42,11.13,7.7,4.65,11.29-.4,18.57-.16,11.57.37,18.92,2.61,29.71,1.55l-.32-22.86s-.09,0-.13-.01c-12.58-.99-25.58,1.49-38.1-.97Z"/>
      <g>
        <g>
          <path class="cls-1" d="M233.05,191.11l-5.58-48.57c-5.87-20.28-18.82-20.87-24.31.74-3.91,15.38-6.13,31.67-9.29,47.82"/>
          <path class="cls-1" d="M86.66,300.22c-11.51.42-20.92,2.43-14.61,15.42,1.52,3.13,7.42,5.02,14.61,6.06"/>
          <path class="cls-1" d="M353.25,321.39c2.8.1,13.26.01,15.3-5.17,4.59-13.9-2.7-16.69-15.3-17.7"/>
          <path class="cls-1" d="M230.93,412.97c.79,16.06,1.64,32.25,3.94,46.89,2.49,15.83,17.83,17.78,22.74,3.57l9.61-50.46"/>
        </g>
        <g>
          <path class="cls-2" d="M228.82,379.74c-4.94-51.89-10.38-103.86-15.63-155.7-3.17,1.7-4.15,10.07-4.94,13.62-8.11,36.44-13.35,84.28-24.43,118.47-3.72,11.46-12.89,16.05-21.12,5.7-10.2-12.83-17.9-43.84-25.68-59.46-5.06-3.79-9.29,17.78-18.58,19.53-5.27.99-20.19,1.49-31.77-.2v72.37c.66,8.96,9.34,17.69,18.22,18.87h126.05c-.56-11.32-1.1-22.6-2.11-33.21Z"/>
          <path class="cls-2" d="M323.56,319.84c-7.27-.23-10.86,4.81-18.55.16-4.1-2.47-6.18-7.66-9.42-11.12l-6.19-12.37-22.18,116.46h67.15c9.74-1.03,17.45-9.37,18.88-18.9v-72.68c-10.78,1.06-18.12-1.18-29.69-1.55Z"/>
          <path class="cls-2" d="M111.52,297.36c9.96-6.57,12.36-36.56,31.39-27.3,7,3.41,18.64,41.88,23.24,51.07,4.68,9.34,3.68-3.41,4.58-7.48,8.78-39.71,15.18-81.93,23.14-122.53h-40.3c.18-6.98-.24-14.01-.01-20.99,1.3-40.85,31.97-70.33,73.33-67.06,27.74,2.2,52.97,25.77,57.97,52.95.83,4.52.87,9.26,1.5,13.76.51,3.67.44,16.36,0,20.14-.06.5-.04.89-.54,1.2h-52.76l17.28,189.59c3.01.03,2.74-6.89,3.24-9.45,6.31-32.37,11-78.68,20.7-108.5.93-2.86,2.55-7.02,5.33-8.36,20.96-10.1,24.43,32.53,35.13,43.12,12.51,2.46,25.51-.01,38.08.97.15.01.29.02.43.03v-88.19c-1.45-10.72-11.06-20.02-22.2-19.22v-31.04c-4.2-53.45-47.73-97.68-101.22-102.07h-19.76c-27.09,1.48-57.63,17.76-74.88,38.39-14.09,16.84-25.15,40.97-26.33,63-.55,10.32.53,21.03-.15,31.39-.41.58-3.41.26-4.45.41-8.42,1.21-16.99,10.3-17.6,18.79v90.24c9.3-.34,19.97.36,24.86-2.86Z"/>
        </g>
      </g>
    </g>
  </g>
</svg>